# xmcd
#
# Track frame offsets: 
#        150
#        18813
#        38308
#        63534
#        82376
#        98493
#        120349
#        135649
#        152889
#        176756
#        196895
#        208778
#        229427
#        245045
#        262723
#        275916
#        290118
#        307681
#
# Disc length: 4290 seconds
#
# Revision: 0
# Processed by: cddbd v1.5.2PL0 Copyright (c) Steve Scherf et al.
# Submitted via: ExactAudioCopyFreeDBPlugin 1.0
#
DISCID=fd10c012
DTITLE=Various Artist - New Country Rock Vol. 15
DYEAR=2018
DGENRE=Country
TTITLE0=Damien Maze - Long Way Home
TTITLE1=Cody McCarver - No Such Thing As A Miracle
TTITLE2=Hot'n'Nasty - Almost Like You're Here
TTITLE3=The Candles - Lost My Driving Wheel
TTITLE4=John Campbelljohn - You Don't Skype Me
TTITLE5=Tommy Schneller Band - Backbeat
TTITLE6=Thunder The Legend - Drivin' My Life Away
TTITLE7=Alan Lawlor - The Flood
TTITLE8=Irion - When It's Over
TTITLE9=Steve Baker - (don't Wanna Be An) Apeman
TTITLE10=Sarah and The Romans - Sometimes
TTITLE11=Mark Selby - A Little While
TTITLE12=Scooter Lee - I Couldn't Leave You If I Tried
TTITLE13=Shawn Jones Trio - One To Blame
TTITLE14=Shannah - Don't Fence Me In
TTITLE15=Pam Jackson - That's The Way Love Goes
TTITLE16=Miko Marks - I Believe In You
TTITLE17=Rockin Roary - Born On The River
EXTD=
EXTT0=
EXTT1=
EXTT2=
EXTT3=
EXTT4=
EXTT5=
EXTT6=
EXTT7=
EXTT8=
EXTT9=
EXTT10=
EXTT11=
EXTT12=
EXTT13=
EXTT14=
EXTT15=
EXTT16=
EXTT17=
PLAYORDER=
